#!OML:ASF I:\Actors\actors\Patient Classification 1\Patient 1\Session 1\Subject1.ASF
:FULLY-SPECIFIED
:DEGREES
518
root 0.607061 17.5731 8.63203 9.96511 -17.5246 -6.58003
lowerback 0.630327 -2.44837 -0.230648
upperback -8.61806 -3.1987 2.34275
thorax -9.28957 -1.4719 2.89113
lowerneck -6.65986 -8.79045 -8.1288
upperneck 21.3391 -13.324 9.17424
head 8.92351 -6.20688 3.04331
rclavicle -5.70015e-014 -4.77083e-015
rhumerus 3.75277 32.0557 -92.2978
rradius 132.915
rwrist 20.6361
rhand 47.3346 -58.5582
rfingers 7.12502
rthumb 68.1178 -59.5023
lclavicle -5.70015e-014 -4.77083e-015
lhumerus -14.9525 -27.8116 100.33
lradius 137.595
lwrist -16.1366
lhand 57.1216 11.2863
lfingers 7.12502
lthumb 73.7351 -11.429
rfemur -12.359 26.3874 17.6979
rtibia 12.6623
rfoot -11.2403 -11.5523
rtoes -8.16831
lfemur 10.6709 -41.367 -22.7339
ltibia -4.61619
lfoot -54.5929 59.5276
ltoes 34.5498
519
root 0.62285 17.5779 8.6552 10.2151 -20.8873 -6.62187
lowerback 0.622771 -3.27769 -0.514787
upperback -8.7091 -4.32611 2.65487
thorax -9.28885 -1.99671 3.47603
lowerneck -6.61977 -8.74409 -8.36501
upperneck 21.604 -13.2044 8.80313
head 8.98532 -6.21262 2.96965
rclavicle -1.63997e-014 -1.19271e-014
rhumerus 3.78806 31.8789 -92.1443
rradius 132.959
rwrist 20.8486
rhand 47.8123 -57.9082
rfingers 7.12502
rthumb 68.4586 -58.0119
lclavicle -1.63997e-014 -1.19271e-014
lhumerus -15.1414 -27.5939 100.72
lradius 137.377
lwrist -16.1029
lhand 57.1803 9.74751
lfingers 7.12502
lthumb 73.7572 -13.1543
rfemur -13.1192 27.5098 17.2574
rtibia 12.6369
rfoot -10.8487 -9.72057
rtoes -8.92413
lfemur 11.5502 -40.7496 -23.8586
ltibia -4.75963
lfoot -60.2806 59.4098
ltoes 37.2008
520
root 0.640127 17.5795 8.6795 10.6775 -24.2096 -6.71121
lowerback 0.718672 -3.96163 -0.476226
upperback -8.93647 -5.25609 2.75138
thorax -9.54036 -2.45273 3.65549
lowerneck -6.92713 -8.88299 -8.08874
upperneck 22.1041 -13.3664 8.17767
head 9.16555 -6.31948 2.6754
rclavicle -7.47927e-014 -1.66979e-014
rhumerus 3.27298 31.3853 -92.3705
rradius 133.169
rwrist 20.9099
rhand 47.8137 -58.9558
rfingers 7.12502
rthumb 68.4596 -59.057
lclavicle -7.47927e-014 -1.66979e-014
lhumerus -15.3807 -27.7706 101.002
lradius 137.124
lwrist -15.8488
lhand 58.0305 9.9872
lfingers 7.12502
lthumb 74.0581 -15.6714
rfemur -14.1195 28.3883 16.74
rtibia 12.5876
rfoot -10.439 -7.75497
rtoes -9.97319
lfemur 11.9883 -40.1147 -24.7061
ltibia -4.84547
lfoot -65.4542 59.2414
ltoes 39.3019
521
root 0.65308 17.5833 8.70702 11.181 -27.4063 -6.85742
lowerback 0.429275 -4.48671 -0.35692
upperback -8.92749 -5.9752 2.71812
thorax -9.33196 -2.82931 3.58269
lowerneck -7.29311 -9.10684 -7.55967
upperneck 22.3256 -13.6823 7.69223
head 9.26406 -6.46616 2.36721
rclavicle 1.95803e-014 -1.86858e-014
rhumerus 3.0396 30.4149 -92.3903
rradius 133.361
rwrist 21.0627
rhand 47.7171 -59.2435
rfingers 7.12502
rthumb 68.3911 -59.5167
lclavicle 1.95803e-014 -1.86858e-014
lhumerus -15.2967 -28.5894 101.126
lradius 136.978
lwrist -15.4488
lhand 57.99 11.2501
lfingers 7.12502
lthumb 74.0447 -14.2747
rfemur -15.0568 29.286 16.2757
rtibia 12.4227
rfoot -10.0529 -5.91835
rtoes -10.7365
lfemur 12.2961 -39.4151 -25.4022
ltibia -4.96443
lfoot -69.8351 59.1543
ltoes 41.0319
522
root 0.666202 17.5852 8.73464 11.7379 -30.423 -7.07411
lowerback 0.323579 -5.53547 -0.539563
upperback -9.22004 -7.37204 3.45312
thorax -9.39966 -3.47786 4.57243
lowerneck -7.26241 -8.61927 -8.333
upperneck 22.7282 -12.8867 7.44212
head 9.3656 -6.1898 2.50305
rclavicle 1.00902e-013 1.06847e-015
rhumerus 2.31559 31.3288 -92.5029
rradius 133.463
rwrist 20.9162
rhand 47.6062 -59.2625
rfingers 7.12502
rthumb 68.3121 -59.7322
lclavicle 1.00902e-013 1.06847e-015
lhumerus -15.7946 -27.6311 101.699
lradius 137.066
lwrist -15.588
lhand 57.2957 11.3931
lfingers 7.12502
lthumb 73.8003 -11.8765
rfemur -15.9931 30.0912 15.8719
rtibia 12.2355
rfoot -9.66132 -4.15167
rtoes -11.3196
lfemur 12.4811 -38.7142 -25.9542
ltibia -5.0699
lfoot -73.7398 59.0114
ltoes 42.5616
523
root 0.682193 17.5812 8.75927 12.4535 -33.0609 -7.8147
lowerback 0.659604 -6.25475 0.175829
upperback -9.53557 -8.29227 3.83419
thorax -9.93429 -3.95974 4.73768
lowerneck -7.23398 -8.34714 -8.82303
upperneck 23.1674 -12.5589 7.62211
head 9.53087 -6.07269 2.68126
rclavicle -1.54654e-013 -1.05356e-014
rhumerus 1.37012 31.3246 -92.6909
rradius 133.633
rwrist 20.707
rhand 47.3893 -59.5368
rfingers 7.12502
rthumb 68.157 -60.3861
lclavicle -1.54654e-013 -1.05356e-014
lhumerus -16.5333 -27.5972 102.37
lradius 137.045
lwrist -15.5579
lhand 57.491 10.9301
lfingers 7.12502
lthumb 73.8716 -12.967
rfemur -16.6151 30.5702 16.1758
rtibia 11.9904
rfoot -9.30241 -2.30707
rtoes -11.6409
lfemur 12.63 -37.5621 -25.8476
ltibia -5.23208
lfoot -76.0937 58.8059
ltoes 43.4491
524
root 0.698916 17.57 8.783 13.4316 -35.2918 -9.48249
lowerback 0.71983 -6.77254 1.85866
upperback -9.21433 -8.87994 4.05792
thorax -9.80092 -4.37979 4.10321
lowerneck -7.63952 -8.33135 -8.60682
upperneck 23.1174 -12.5755 7.69511
head 9.5805 -6.05017 2.65054
rclavicle 5.13983e-014 1.90833e-014
rhumerus 1.37748 30.6464 -92.6037
rradius 133.843
rwrist 20.6529
rhand 47.5216 -60.0178
rfingers 7.12502
rthumb 68.2518 -60.6361
lclavicle 5.13983e-014 1.90833e-014
lhumerus -16.2818 -28.1695 102.299
lradius 136.799
lwrist -15.2038
lhand 58.4837 10.6582
lfingers 7.12502
lthumb 74.2026 -16.5113
rfemur -16.5977 30.7604 17.6906
rtibia 11.6096
rfoot -8.9947 -0.315743
rtoes -11.6687
lfemur 13.1787 -36.0811 -24.9963
ltibia -5.5909
lfoot -77.3639 58.6064
ltoes 43.9362
